<?xml version="1.0" encoding="UTF-8"?>
<svg id="Layer_1" xmlns="http://www.w3.org/2000/svg" version="1.1" viewBox="0 0 216.6 226.1">
  <!-- Generator: Adobe Illustrator 30.0.0, SVG Export Plug-In . SVG Version: 2.1.1 Build 123)  -->
  <defs>
    <style>
      .st0 {
        fill: #d60000;
      }
    </style>
  </defs>
  <path class="st0" d="M186.2,99.3L54.6,23.3c-12.5-7.2-28.2,1.8-28.2,16.3v66l27.2,2.2v6.8c0,0,0,.2,0,.3v6.5s-27.3,2.2-27.3,2.2v68c0,14.5,15.6,23.5,28.2,16.3l131.6-76c12.5-7.2,12.5-25.3,0-32.5ZM71.4,80.1c.7-.7,1.5-1.2,2.3-1.2,15.3,0,23.5,0,38.8-.5.9,0,1.8.5,2.5,1.2.7.8,1.2,1.9,1.2,3.1v.2s0,0,0,0c0,1.2-.4,2.4-1.2,3.2-.7.7-1.5,1.2-2.4,1.2l-38.7.5c-1.1,0-1.9-.5-2.6-1.2-.7-.8-1.2-1.9-1.2-3.1v-.3c0-1.2.4-2.3,1.2-3.2ZM114.3,114.3c0,7.9-.7,15.8-2.4,23.6-14.5,0-21.6.2-36.1.5-1.9-7.7-2.8-15.6-2.9-23.5,0-8,.7-15.9,2.4-23.7h0s36.1-.4,36.1-.4c1.9,7.7,2.8,15.6,2.9,23.6ZM69.4,114.8c0,8.9,1.5,13.2,1.5,13.2l-13.7-6.1v-7.4c0,0,0-.2,0-.3h0v-7.1l13.8-6.2s-1.5,5.1-1.5,13.5,0-8.6,0,.3ZM115.7,148.9c-.7.8-1.6,1.3-2.5,1.3l-38.6.5c-.9,0-1.8-.5-2.5-1.2-.7-.8-1.2-1.9-1.2-3.1v-.3c0-1.2.4-2.3,1.2-3.2.7-.8,1.5-1.2,2.5-1.2,15.3-.4,23.3,0,38.6-.5,1,0,1.9.5,2.5,1.2.7.8,1.2,1.9,1.2,3.1v.3s0,0,0,0c0,1.2-.4,2.3-1.1,3.1Z"/>
  <path class="st0" d="M72.3,205.7h-2v-.7h4.8v.7h-2v4.6h-.8v-4.6ZM75.5,205h.8l2.1,4.1,2.1-4.1h.8v5.3h-.8v-3.9l-1.9,3.9h-.3l-2-3.9v3.9h-.8v-5.3Z"/>
</svg>