<?xml version="1.0" encoding="UTF-8"?>
<svg id="Layer_1" xmlns="http://www.w3.org/2000/svg" version="1.1" viewBox="0 0 1000 300">
  <!-- Generator: Adobe Illustrator 30.0.0, SVG Export Plug-In . SVG Version: 2.1.1 Build 123)  -->
  <defs>
    <style>
      .st0 {
        fill: #001829;
      }

      .st1 {
        fill: #d60000;
      }
    </style>
  </defs>
  <path class="st1" d="M894.5,134.1l-131.6-76c-12.5-7.2-28.2,1.8-28.2,16.3v66l27.2,2.2v6.8c0,0,0,.2,0,.3v6.5s-27.3,2.2-27.3,2.2v68c0,14.5,15.6,23.5,28.2,16.3l131.6-76c12.5-7.2,12.5-25.3,0-32.5ZM779.8,114.9c.7-.7,1.5-1.2,2.3-1.2,15.3,0,23.5,0,38.8-.5.9,0,1.8.5,2.5,1.2.7.8,1.2,1.9,1.2,3.1v.2s0,0,0,0c0,1.2-.4,2.4-1.2,3.2-.7.7-1.5,1.2-2.4,1.2l-38.7.5c-1.1,0-1.9-.5-2.6-1.2-.7-.8-1.2-1.9-1.2-3.1v-.3c0-1.2.4-2.3,1.2-3.2ZM822.7,149.2c0,7.9-.7,15.8-2.4,23.6-14.5,0-21.6.2-36.1.5-1.9-7.7-2.8-15.6-2.9-23.5,0-8,.7-15.9,2.4-23.7h0s36.1-.4,36.1-.4c1.9,7.7,2.8,15.6,2.9,23.6ZM777.8,149.7c0,8.9,1.5,13.2,1.5,13.2l-13.7-6.1v-7.4c0,0,0-.2,0-.3h0v-7.1l13.8-6.2s-1.5,5.1-1.5,13.5,0-8.6,0,.3ZM824.1,183.8c-.7.8-1.6,1.3-2.5,1.3l-38.6.5c-.9,0-1.8-.5-2.5-1.2-.7-.8-1.2-1.9-1.2-3.1v-.3c0-1.2.4-2.3,1.2-3.2.7-.8,1.5-1.2,2.5-1.2,15.3-.4,23.3,0,38.6-.5,1,0,1.9.5,2.5,1.2.7.8,1.2,1.9,1.2,3.1v.3s0,0,0,0c0,1.2-.4,2.3-1.1,3.1Z"/>
  <path class="st1" d="M803.7,235.4h-4.3v-1.4h10.2v1.4h-4.3v9.8h-1.7v-9.8ZM810.5,234h1.6l4.5,8.7,4.5-8.7h1.6v11.2h-1.6v-8.2l-4.1,8.2h-.7l-4.2-8.2v8.2h-1.6v-11.2Z"/>
  <g>
    <g>
      <path class="st0" d="M138.7,160.8l31.7,72.2h-18.6l-7-16.6h-31l-6.9,16.6h-18.6l31.4-72.2h18.9ZM118.6,204.7h21.5l-10.8-26.2-10.7,26.2Z"/>
      <path class="st0" d="M245.2,165.5v16.7c-8.1-5.2-15.5-7.7-23.8-7.7-16.3,0-24.7,10.8-24.7,22.7s8.9,22.1,24.3,22.1,16.8-2.7,24.6-7.9v16.2c-8,4.3-17.1,6.3-27.6,6.3-25.1,0-39.9-16.2-39.9-37s17.1-37,40.3-37,17.1,1.6,26.8,5.6Z"/>
      <path class="st0" d="M307.5,160.8l31.7,72.2h-18.6l-7-16.6h-31l-6.9,16.6h-18.6l31.4-72.2h18.9ZM287.5,204.7h21.5l-10.8-26.2-10.7,26.2Z"/>
      <path class="st0" d="M383.7,160.9c26.9,0,40.9,15.1,40.9,35.8s-13.7,36.2-39.8,36.2h-31.5v-72.1h30.4ZM383,219.7c15.4,0,23-7.9,23-22.7s-8.3-23.2-23.7-23.2h-10.9v46h11.5Z"/>
      <path class="st0" d="M492.5,160.9v12.9h-31.2v15.8h29.8v12.9h-29.8v17.5h32v12.9h-50.2v-72.1h49.3Z"/>
      <path class="st0" d="M529.5,160.9l22.6,27.8,22.6-27.8h16.5v72.1h-18.2v-46.1l-20.3,25.3h-1.7l-20.4-25.3v46.1h-17.8v-72.1h16.6Z"/>
      <path class="st0" d="M624.7,160.9l17.2,23.4,17.4-23.4h19.7l-27.6,37.5v34.6h-18.2v-34.2l-28-37.8h19.4Z"/>
    </g>
    <g>
      <path class="st0" d="M178.2,67.9l31.7,72.1h-18.6l-7-16.6h-30.9l-6.9,16.6h-18.6l31.3-72.1h18.9ZM158.2,111.8h21.4l-10.8-26.2-10.7,26.2Z"/>
      <path class="st0" d="M236.1,68v39c0,11.8,6,18.5,17.6,18.5s17.4-5.7,17.4-18.3v-39.3h18.2v39.7c0,21.4-13.2,33.2-35.6,33.2s-35.8-12.5-35.8-32.9v-40h18.1Z"/>
      <path class="st0" d="M372,72.6v16.7c-8.1-5.2-15.5-7.7-23.7-7.7-16.3,0-24.7,10.8-24.7,22.7s8.9,22.1,24.3,22.1,16.8-2.7,24.6-7.9v16.1c-8,4.3-17.1,6.3-27.5,6.3-25.1,0-39.9-16.1-39.9-36.9s17.1-36.9,40.2-36.9,17.1,1.6,26.8,5.6Z"/>
      <path class="st0" d="M456.7,68v15h-25.9v57h-18.1v-57h-25.6v-15h69.6Z"/>
      <path class="st0" d="M490.2,68v72h-18.1v-72h18.1Z"/>
      <path class="st0" d="M586.6,104c0,20.2-14.4,36.9-40.1,36.9s-39.8-17.3-39.8-36.8,11.9-37,40.1-37,39.8,16.3,39.8,36.9ZM525.3,104.1c0,12.5,8.8,21,21.2,21s21.5-7.9,21.5-21.2-7.6-21-21.4-21-21.3,8.8-21.3,21.2Z"/>
      <path class="st0" d="M619,68l40.4,44.8v-44.8h17.9v72h-16.1l-40.3-44.7v44.7h-17.8v-72h15.9Z"/>
    </g>
  </g>
</svg>